<?xml version="1.0" encoding="UTF-8"?>
<svg xmlns="http://www.w3.org/2000/svg" width="1440" height="1627" viewBox="0 0 1440 1627">
  <path d="M376.8714 872.0336C378.1066 867.7221 384.8934 867.7221 386.1286 872.0336C395.8288 905.8948 420.5923 980.9442 458.674 1019.026C496.7558 1057.1077 571.8052 1081.8712 605.6664 1091.5714C609.9779 1092.8066 609.9779 1099.5934 605.6664 1100.8286C571.8052 1110.5288 496.7558 1135.2923 458.674 1173.374C420.5923 1211.4558 395.8288 1286.5052 386.1286 1320.3664C384.8934 1324.6779 378.1066 1324.6779 376.8714 1320.3664C367.1712 1286.5052 342.4077 1211.4558 304.326 1173.374C266.2442 1135.2923 191.1948 1110.5288 157.3336 1100.8286C153.0221 1099.5934 153.0221 1092.8066 157.3336 1091.5714C191.1948 1081.8712 266.2442 1057.1077 304.326 1019.026C342.4077 980.9442 367.1712 905.8948 376.8714 872.0336Z" fill="#ffffff" stroke="#cea7fc" stroke-width="2"/>
</svg>
