<svg width="856" height="856" viewBox="0 0 856 856" fill="none" xmlns="http://www.w3.org/2000/svg">
<path d="M418.94 6.082C421.263 -2.02639 434.026 -2.02638 436.349 6.08202C454.591 69.7607 501.161 210.898 572.777 282.514C644.393 354.13 785.53 400.7 849.209 418.942C857.317 421.265 857.317 434.028 849.209 436.351C785.53 454.593 644.393 501.163 572.777 572.779C501.161 644.395 454.591 785.532 436.349 849.211C434.026 857.319 421.263 857.319 418.94 849.211C400.698 785.532 354.128 644.395 282.512 572.779C210.896 501.163 69.7587 454.593 6.08005 436.351C-2.02835 434.028 -2.02833 421.265 6.08007 418.942C69.7587 400.7 210.896 354.13 282.512 282.514C354.128 210.898 400.698 69.7606 418.94 6.082Z" fill="#0A0F2C"/>
</svg>
